<mxfile host="app.diagrams.net" agent="Mozilla/5.0 (Windows NT 10.0; Win64; x64) AppleWebKit/537.36 (KHTML, like Gecko) Chrome/126.0.0.0 Safari/537.36 OPR/112.0.0.0" version="24.7.14">
  <diagram name="Страница — 1" id="YUVXSCBwJUpuNjFyxesY">
    <mxGraphModel dx="961" dy="575" grid="1" gridSize="10" guides="1" tooltips="1" connect="1" arrows="1" fold="1" page="1" pageScale="1" pageWidth="827" pageHeight="1169" math="0" shadow="0">
      <root>
        <mxCell id="0" />
        <mxCell id="1" parent="0" />
        <mxCell id="wa9o9G0RywKdAa4oKemP-1" value="&lt;font style=&quot;font-size: 13px;&quot;&gt;Формирование расписания руководителя по пению&lt;/font&gt;" style="rounded=0;whiteSpace=wrap;html=1;" vertex="1" parent="1">
          <mxGeometry x="280" y="270" width="230" height="90" as="geometry" />
        </mxCell>
        <mxCell id="wa9o9G0RywKdAa4oKemP-3" value="" style="endArrow=classic;html=1;rounded=0;entryX=0.5;entryY=0;entryDx=0;entryDy=0;" edge="1" parent="1" target="wa9o9G0RywKdAa4oKemP-1">
          <mxGeometry width="50" height="50" relative="1" as="geometry">
            <mxPoint x="395" y="220" as="sourcePoint" />
            <mxPoint x="390" y="300" as="targetPoint" />
          </mxGeometry>
        </mxCell>
        <mxCell id="wa9o9G0RywKdAa4oKemP-5" value="Закон об образовании" style="edgeLabel;html=1;align=center;verticalAlign=middle;resizable=0;points=[];" vertex="1" connectable="0" parent="wa9o9G0RywKdAa4oKemP-3">
          <mxGeometry x="-0.3127" relative="1" as="geometry">
            <mxPoint y="-30" as="offset" />
          </mxGeometry>
        </mxCell>
        <mxCell id="wa9o9G0RywKdAa4oKemP-10" value="" style="endArrow=classic;html=1;rounded=0;exitX=1;exitY=0.5;exitDx=0;exitDy=0;" edge="1" parent="1">
          <mxGeometry width="50" height="50" relative="1" as="geometry">
            <mxPoint x="510" y="314.8" as="sourcePoint" />
            <mxPoint x="640" y="314.8" as="targetPoint" />
          </mxGeometry>
        </mxCell>
        <mxCell id="wa9o9G0RywKdAa4oKemP-19" value="Готовое расписание" style="edgeLabel;html=1;align=center;verticalAlign=middle;resizable=0;points=[];" vertex="1" connectable="0" parent="wa9o9G0RywKdAa4oKemP-10">
          <mxGeometry x="-0.148" y="1" relative="1" as="geometry">
            <mxPoint x="5" y="-14" as="offset" />
          </mxGeometry>
        </mxCell>
        <mxCell id="wa9o9G0RywKdAa4oKemP-11" value="" style="endArrow=classic;html=1;rounded=0;entryX=0;entryY=0.75;entryDx=0;entryDy=0;" edge="1" parent="1" target="wa9o9G0RywKdAa4oKemP-1">
          <mxGeometry width="50" height="50" relative="1" as="geometry">
            <mxPoint x="120" y="338" as="sourcePoint" />
            <mxPoint x="280" y="338" as="targetPoint" />
          </mxGeometry>
        </mxCell>
        <mxCell id="wa9o9G0RywKdAa4oKemP-21" value="Список свободных аудиторий" style="edgeLabel;html=1;align=center;verticalAlign=middle;resizable=0;points=[];" vertex="1" connectable="0" parent="wa9o9G0RywKdAa4oKemP-11">
          <mxGeometry x="-0.1375" y="-1" relative="1" as="geometry">
            <mxPoint x="11" y="-19" as="offset" />
          </mxGeometry>
        </mxCell>
        <mxCell id="wa9o9G0RywKdAa4oKemP-12" value="" style="endArrow=classic;html=1;rounded=0;entryX=0;entryY=0.25;entryDx=0;entryDy=0;" edge="1" parent="1" target="wa9o9G0RywKdAa4oKemP-1">
          <mxGeometry width="50" height="50" relative="1" as="geometry">
            <mxPoint x="120" y="293" as="sourcePoint" />
            <mxPoint x="360" y="350" as="targetPoint" />
          </mxGeometry>
        </mxCell>
        <mxCell id="wa9o9G0RywKdAa4oKemP-20" value="Рабочее время руководителя" style="edgeLabel;html=1;align=center;verticalAlign=middle;resizable=0;points=[];" vertex="1" connectable="0" parent="wa9o9G0RywKdAa4oKemP-12">
          <mxGeometry x="-0.1499" y="1" relative="1" as="geometry">
            <mxPoint x="12" y="-12" as="offset" />
          </mxGeometry>
        </mxCell>
        <mxCell id="wa9o9G0RywKdAa4oKemP-13" value="" style="endArrow=classic;html=1;rounded=0;entryX=0.114;entryY=0.988;entryDx=0;entryDy=0;entryPerimeter=0;" edge="1" parent="1" target="wa9o9G0RywKdAa4oKemP-1">
          <mxGeometry width="50" height="50" relative="1" as="geometry">
            <mxPoint x="306" y="420" as="sourcePoint" />
            <mxPoint x="360" y="350" as="targetPoint" />
          </mxGeometry>
        </mxCell>
        <mxCell id="wa9o9G0RywKdAa4oKemP-18" value="Заместитель директора&lt;br&gt;&amp;nbsp;по учебной работе" style="edgeLabel;html=1;align=center;verticalAlign=middle;resizable=0;points=[];" vertex="1" connectable="0" parent="wa9o9G0RywKdAa4oKemP-13">
          <mxGeometry x="-0.7613" y="1" relative="1" as="geometry">
            <mxPoint x="5" y="27" as="offset" />
          </mxGeometry>
        </mxCell>
        <mxCell id="wa9o9G0RywKdAa4oKemP-14" value="" style="endArrow=classic;html=1;rounded=0;entryX=0.5;entryY=1;entryDx=0;entryDy=0;" edge="1" parent="1">
          <mxGeometry width="50" height="50" relative="1" as="geometry">
            <mxPoint x="394.8" y="450" as="sourcePoint" />
            <mxPoint x="394.8" y="360" as="targetPoint" />
          </mxGeometry>
        </mxCell>
        <mxCell id="wa9o9G0RywKdAa4oKemP-17" value="Директор" style="edgeLabel;html=1;align=center;verticalAlign=middle;resizable=0;points=[];" vertex="1" connectable="0" parent="wa9o9G0RywKdAa4oKemP-14">
          <mxGeometry x="-0.7381" relative="1" as="geometry">
            <mxPoint y="22" as="offset" />
          </mxGeometry>
        </mxCell>
        <mxCell id="wa9o9G0RywKdAa4oKemP-15" value="" style="endArrow=classic;html=1;rounded=0;entryX=0.889;entryY=0.988;entryDx=0;entryDy=0;entryPerimeter=0;" edge="1" parent="1" target="wa9o9G0RywKdAa4oKemP-1">
          <mxGeometry width="50" height="50" relative="1" as="geometry">
            <mxPoint x="484" y="420" as="sourcePoint" />
            <mxPoint x="360" y="350" as="targetPoint" />
          </mxGeometry>
        </mxCell>
        <mxCell id="wa9o9G0RywKdAa4oKemP-16" value="Руководитель&amp;nbsp;&lt;div&gt;по пению&lt;/div&gt;" style="edgeLabel;html=1;align=center;verticalAlign=middle;resizable=0;points=[];" vertex="1" connectable="0" parent="wa9o9G0RywKdAa4oKemP-15">
          <mxGeometry x="-0.2548" relative="1" as="geometry">
            <mxPoint y="43" as="offset" />
          </mxGeometry>
        </mxCell>
      </root>
    </mxGraphModel>
  </diagram>
</mxfile>
